:version 1.10
:name ASF
:units
  mass 1
  length 1
  angle deg
:documentation
  ASF file generated by Kaydara
:root
  axis xyz
  order  tx ty tz rx ry rz
  position 0 0 0
  orientation 0 0 0
:bonedata
  begin
    id 1
    name lfemurDummy
    direction 0.61522 -0.761478 0.204097
    length 5.68318
    axis 0 -0 0 xyz
  end
  begin
    id 2
    name lfemur
    direction 0.34202 -0.939693 -5.84747e-008
    length 16.9147
    axis 0 -0 20 xyz
    dof rx ry rz
    limits( -inf , inf )
( -inf , inf )
( -inf , inf )

  end
  begin
    id 3
    name ltibia
    direction 0.34202 -0.939693 1.20839e-009
    length 18.0532
    axis 0 -0 20 xyz
    dof rz ry rx
    limits( -inf , inf )
( -inf , inf )
( -inf , inf )

  end
  begin
    id 4
    name lfoot
    direction 0.0841971 -0.23133 0.969225
    length 5.23822
    axis -90 7.62852e-016 20 xyz
    dof ry rx rz
    limits( -inf , inf )
( -inf , inf )
( -inf , inf )

  end
  begin
    id 5
    name ltoes
    direction 0 0 0
    length 0
    axis 0 0 0 xyz
    dof rz ry rx
    limits( -inf , inf )
( -inf , inf )
( -inf , inf )

  end
  begin
    id 6
    name rfemurDummy
    direction -0.625247 -0.75382 0.202044
    length 5.74091
    axis 0 -0 0 xyz
  end
  begin
    id 7
    name rfemur
    direction -0.34202 -0.939693 -1.47013e-008
    length 16.4922
    axis 0 -0 -20 xyz
    dof rx ry rz
    limits( -inf , inf )
( -inf , inf )
( -inf , inf )

  end
  begin
    id 8
    name rtibia
    direction -0.34202 -0.939693 -7.74345e-010
    length 18.2421
    axis 0 -0 -20 xyz
    dof rz ry rx
    limits( -inf , inf )
( -inf , inf )
( -inf , inf )

  end
  begin
    id 9
    name rfoot
    direction -0.124331 -0.341598 0.931586
    length 5.45787
    axis -90 -7.62852e-016 -20 xyz
    dof ry rx rz
    limits( -inf , inf )
( -inf , inf )
( -inf , inf )

  end
  begin
    id 10
    name rtoes
    direction 0 0 0
    length 0
    axis 0 0 0 xyz
    dof rz ry rx
    limits( -inf , inf )
( -inf , inf )
( -inf , inf )

  end
  begin
    id 11
    name lowerbackDummy
    direction 0 0 0
    length 0
    axis 0 -0 0 xyz
  end
  begin
    id 12
    name lowerback
    direction -0.0218484 0.994884 -0.0986304
    length 4.45607
    axis 0 -0 0 xyz
    dof rx ry rz
    limits( -inf , inf )
( -inf , inf )
( -inf , inf )

  end
  begin
    id 13
    name upperback
    direction -0.00973057 0.999717 -0.0217111
    length 4.47449
    axis 0 -0 0 xyz
    dof rx ry rz
    limits( -inf , inf )
( -inf , inf )
( -inf , inf )

  end
  begin
    id 14
    name thorax
    direction -0.000928171 0.999699 0.0245198
    length 4.50973
    axis 0 -0 0 xyz
    dof rx ry rz
    limits( -inf , inf )
( -inf , inf )
( -inf , inf )

  end
  begin
    id 15
    name rclavicle
    direction -0.9009 0.425937 -0.0834055
    length 7.28587
    axis 0 -0 0 xyz
    dof rx ry rz
    limits( -inf , inf )
( -inf , inf )
( -inf , inf )

  end
  begin
    id 16
    name rhumerus
    direction -1 -2.23604e-007 -1.42637e-007
    length 13.5704
    axis 180 30 90 xyz
    dof rx ry rz
    limits( -inf , inf )
( -inf , inf )
( -inf , inf )

  end
  begin
    id 17
    name rradius
    direction -1 5.68281e-008 -4.4952e-007
    length 8.06782
    axis 180 30 90 xyz
    dof rz ry rx
    limits( -inf , inf )
( -inf , inf )
( -inf , inf )

  end
  begin
    id 18
    name rwrist
    direction -1 1.51393e-007 1.38143e-007
    length 4.03391
    axis -90 -90 0 xyz
    dof rz rx ry
    limits( -inf , inf )
( -inf , inf )
( -inf , inf )

  end
  begin
    id 19
    name rthumb
    direction 0 0 0
    length 0
    axis 0 0 0 xyz
    dof ry rx rz
    limits( -inf , inf )
( -inf , inf )
( -inf , inf )

  end
  begin
    id 20
    name rhand
    direction -1 -3.34077e-007 -5.59631e-007
    length 1.29744
    axis -90 -90 0 xyz
    dof ry rx rz
    limits( -inf , inf )
( -inf , inf )
( -inf , inf )

  end
  begin
    id 21
    name rfingers
    direction 0 0 0
    length 0
    axis 0 0 0 xyz
    dof rz ry rx
    limits( -inf , inf )
( -inf , inf )
( -inf , inf )

  end
  begin
    id 22
    name lclavicle
    direction 0.940017 0.332249 -0.0773232
    length 8.29589
    axis 0 -0 0 xyz
    dof rx ry rz
    limits( -inf , inf )
( -inf , inf )
( -inf , inf )

  end
  begin
    id 23
    name lhumerus
    direction 1 7.41158e-008 -1.44768e-008
    length 12.0042
    axis 180 -30 -90 xyz
    dof rx ry rz
    limits( -inf , inf )
( -inf , inf )
( -inf , inf )

  end
  begin
    id 24
    name lradius
    direction 1 -1.32972e-007 3.10821e-007
    length 8.1902
    axis 180 -30 -90 xyz
    dof rz ry rx
    limits( -inf , inf )
( -inf , inf )
( -inf , inf )

  end
  begin
    id 25
    name lwrist
    direction 1 3.08957e-007 4.01394e-007
    length 4.09509
    axis -90 90 0 xyz
    dof rz rx ry
    limits( -inf , inf )
( -inf , inf )
( -inf , inf )

  end
  begin
    id 26
    name lthumb
    direction 0 0 0
    length 0
    axis 0 0 0 xyz
    dof ry rx rz
    limits( -inf , inf )
( -inf , inf )
( -inf , inf )

  end
  begin
    id 27
    name lhand
    direction 1 -1.64125e-007 -6.99514e-007
    length 1.37229
    axis -90 90 0 xyz
    dof ry rx rz
    limits( -inf , inf )
( -inf , inf )
( -inf , inf )

  end
  begin
    id 28
    name lfingers
    direction 0 0 0
    length 0
    axis 0 0 0 xyz
    dof rz ry rx
    limits( -inf , inf )
( -inf , inf )
( -inf , inf )

  end
  begin
    id 29
    name lowerneck
    direction -0.030798 0.998024 0.0547665
    length 3.93918
    axis 0 -0 0 xyz
    dof rx ry rz
    limits( -inf , inf )
( -inf , inf )
( -inf , inf )

  end
  begin
    id 30
    name upperneck
    direction 0.0531588 0.996611 -0.0627736
    length 3.95491
    axis 0 -0 0 xyz
    dof rx ry rz
    limits( -inf , inf )
( -inf , inf )
( -inf , inf )

  end
  begin
    id 31
    name head
    direction 0 0 0
    length 0
    axis 0 0 0 xyz
    dof rx ry rz
    limits( -inf , inf )
( -inf , inf )
( -inf , inf )

  end
:hierarchy
  begin
    root lfemurDummy rfemurDummy lowerbackDummy
    lfemurDummy lfemur
    lfemur ltibia
    ltibia lfoot
    lfoot ltoes
    rfemurDummy rfemur
    rfemur rtibia
    rtibia rfoot
    rfoot rtoes
    lowerbackDummy lowerback
    lowerback upperback
    upperback thorax
    thorax rclavicle lclavicle lowerneck
    rclavicle rhumerus
    rhumerus rradius
    rradius rwrist
    rwrist rthumb rhand
    rhand rfingers
    lclavicle lhumerus
    lhumerus lradius
    lradius lwrist
    lwrist lthumb lhand
    lhand lfingers
    lowerneck upperneck
    upperneck head
  end

:SAMPLES-PER-SECOND 30
:FULLY-SPECIFIED
:DEGREES
47
root  12.46586672 41.20777761 -3.900533211 -151.6550293 -80.52850342 154.2349854
lowerback  10.08689976 1.191190004 1.350739956
upperback  4.386030197 1.52978003 -0.2302159965
thorax  -1.053079963 0.7091990113 -1.159809947
lowerneck  -2.757800102 8.116660118 1.851199985
upperneck  16.96929932 10.95189953 -2.575220108
head  5.833439827 5.140580177 -0.4657210112
lclavicle  0 -9.442270133e-015 7.951389973e-016
lhumerus  -38.72389984 -9.969739914 88.56729889
lradius  2.299742811e-031 -2.679557247e-031 130.6380005
lwrist  -7.062250077e-031 -0 6.780099869
lhand  -1.496451383e-031 -27.76390076 20.11240005
lfingers  90 7.125020027 -90
lthumb  89.89689403 5.08795885 91.16245106
rclavicle  0 -9.442270133e-015 7.951389973e-016
rhumerus  -35.68700027 35.875 -95.17880249
rradius  -8.403759734e-032 3.429666494e-031 103.7679977
rwrist  7.062250077e-031 -1.765562519e-031 -8.379920006
rhand  -7.920061211e-032 -33.2840004 9.303460121
rfingers  -90 -7.125020027 -90
rthumb  -92.93752616 -24.25625642 -97.11982154
rfemur  -22.81690025 13.84179974 -4.023789883
rtibia  -0 0 37.24140167
rfoot  -0 -17.7887001 -15.78050041
rtoes  5.373923086 19.29304026 -105.8922705
lfemur  -11.3100996 3.672940016 -12.16020012
ltibia  -0 0 54.97750092
lfoot  -0 9.897990227 -10.78460026
ltoes  -4.250644065 -19.5611806 -102.515957
48
root  12.41533324 41.24177647 -3.931000101 -151.7020264 -79.93890381 154.3759766
lowerback  9.947389603 1.15260005 0.9083150029
upperback  4.420110226 1.435520053 -0.2328190058
thorax  -0.956313014 0.6574249864 -0.900635004
lowerneck  -2.854059935 8.20855999 2.277100086
upperneck  16.56570053 11.07800007 -2.795170069
head  5.763249874 5.225249767 -0.5932120085
lclavicle  0 -9.442270133e-015 7.951389973e-016
lhumerus  -41.21630096 -9.580160141 89.18930054
lradius  2.287794235e-031 -2.689766082e-031 130.3829956
lwrist  -1.412450015e-030 -0 8.162960052
lhand  -1.496451383e-031 -27.76390076 20.11240005
lfingers  90 7.125020027 -90
lthumb  89.89689403 5.08795885 91.16245106
rclavicle  0 -9.442270133e-015 7.951389973e-016
rhumerus  -35.55559921 35.93970108 -94.99909973
rradius  -7.765450658e-032 3.444680217e-031 102.7040024
rwrist  1.412450015e-030 -1.765562519e-031 -8.455050468
rhand  -7.920061211e-032 -33.2840004 9.303460121
rfingers  -90 -7.125020027 -90
rthumb  -92.93752616 -24.25625642 -97.11982154
rfemur  -22.42630005 13.15330029 -3.818300009
rtibia  -0 0 38.53919983
rfoot  -0 -17.1012001 -16.15889931
rtoes  5.373923086 19.29304026 -105.8922705
lfemur  -12.68010044 4.416150093 -11.95269966
ltibia  -0 0 55.84489822
lfoot  -0 8.762680054 -9.242919922
ltoes  -4.250644065 -19.5611806 -102.515957
49
root  12.37811141 41.24444376 -3.965222366 -151.8469849 -79.58760071 154.6710205
lowerback  9.712010384 1.17324996 0.1996870041
upperback  4.49766016 1.403929949 0.1709749997
thorax  -0.7767720222 0.6291689873 -0.0773530975
lowerneck  -3.187119961 8.227410316 1.887590051
upperneck  16.28730011 11.1111002 -2.589400053
head  5.699059963 5.240210056 -0.4590919912
lclavicle  0 -9.442270133e-015 7.951389973e-016
lhumerus  -43.29520035 -8.726900101 90.27539825
lradius  2.265180687e-031 -2.70883748e-031 129.9029999
lwrist  -1.412450015e-030 1.765562519e-031 9.183989525
lhand  -1.496451383e-031 -27.76390076 20.11240005
lfingers  90 7.125020027 -90
lthumb  89.89689403 5.08795885 91.16245106
rclavicle  0 -9.442270133e-015 7.951389973e-016
rhumerus  -34.95569992 36.26779938 -94.07119751
rradius  -7.277707571e-032 3.455313844e-031 101.8939972
rwrist  7.062250077e-031 -0 -8.125249863
rhand  -7.920061211e-032 -33.2840004 9.303460121
rfingers  -90 -7.125020027 -90
rthumb  -92.93752616 -24.25625642 -97.11982154
rfemur  -22.03750038 12.34500027 -3.533979893
rtibia  -0 0 40.0530014
rfoot  -0 -15.52490044 -15.20199966
rtoes  5.373923086 19.29304026 -105.8922705
lfemur  -14.26439953 4.883790016 -11.62139988
ltibia  -0 0 56.78580093
lfoot  -0 7.516610146 -7.967370033
ltoes  -4.250644065 -19.5611806 -102.515957
50
root  12.33282239 41.21244536 -3.990066709 -151.6519775 -79.22489929 154.3330078
lowerback  9.938079834 1.078860044 0.1049529985
upperback  4.511370182 1.263319969 -0.02415239997
thorax  -0.88419801 0.5577070117 -0.2149849981
lowerneck  -3.505259991 8.334850311 1.816429973
upperneck  16.04159927 11.13640022 -1.72397995
head  5.622149944 5.314209938 -0.1743350029
lclavicle  0 -9.442270133e-015 7.951389973e-016
lhumerus  -45.21419907 -8.023539543 90.56590271
lradius  2.23440048e-031 -2.734282087e-031 129.2550049
lwrist  -7.062250077e-031 -1.765562519e-031 9.801659584
lhand  -1.496451383e-031 -27.76390076 20.11240005
lfingers  90 7.125020027 -90
lthumb  89.89689403 5.08795885 91.16245106
rclavicle  0 -9.442270133e-015 7.951389973e-016
rhumerus  -34.68809891 36.34199905 -94.19499969
rradius  -7.027854145e-032 3.460482148e-031 101.4800034
rwrist  7.062250077e-031 -0 -7.252160072
rhand  -7.920061211e-032 -33.2840004 9.303460121
rfingers  -90 -7.125020027 -90
rthumb  -92.93752616 -24.25625642 -97.11982154
rfemur  -21.31949997 11.72329998 -3.406090021
rtibia  -0 0 41.66640091
rfoot  -0 -13.32240009 -13.20979977
rtoes  5.373923086 19.29304026 -105.8922705
lfemur  -15.52859974 5.095069885 -11.43550014
ltibia  -0 0 57.73910141
lfoot  8.879111961e-032 6.161950111 -6.754389763
ltoes  -4.250644065 -19.5611806 -102.515957
51
root  12.29455527 41.14600054 -4.018777937 -150.382019 -78.76439667 152.7849731
lowerback  10.09969997 1.093209982 -0.8643140197
upperback  4.657830238 1.187379956 0.1523019969
thorax  -0.8450610042 0.5010010004 0.5182290077
lowerneck  -3.79508996 8.39702034 1.693600059
upperneck  15.74400043 11.20680046 -1.511250019
head  5.559830189 5.364409924 -0.07989639789
lclavicle  0 -9.442270133e-015 7.951389973e-016
lhumerus  -46.76050186 -7.061970234 91.32949829
lradius  2.201021816e-031 -2.761222013e-031 128.5590057
lwrist  0 -0 10.24400043
lhand  -1.496451383e-031 -27.76390076 20.11240005
lfingers  90 7.125020027 -90
lthumb  89.89689403 5.08795885 91.16245106
rclavicle  0 -9.442270133e-015 7.951389973e-016
rhumerus  -34.17750168 36.75249863 -93.58129883
rradius  -6.971070644e-032 3.461630509e-031 101.3860016
rwrist  1.412450015e-030 1.765562519e-031 -6.576449871
rhand  -7.920061211e-032 -33.2840004 9.303460121
rfingers  -90 -7.125020027 -90
rthumb  -92.93752616 -24.25625642 -97.11982154
rfemur  -20.44689941 11.3913002 -3.574170113
rtibia  -0 0 43.24380112
rfoot  -0 -10.90320015 -10.78489971
rtoes  5.373923086 19.29304026 -105.8922705
lfemur  -16.70969963 5.259049892 -11.48349953
ltibia  -0 0 58.65169907
lfoot  4.430128292e-032 4.90471983 -5.654739857
ltoes  -4.250644065 -19.5611806 -102.515957
52
root  12.24371092 41.06822277 -4.055599903 -150.789978 -78.59149933 153.1500244
lowerback  10.02110004 1.160459995 -1.458490014
upperback  4.717299938 1.228379965 0.5459650159
thorax  -0.7616040111 0.5076559782 1.256049991
lowerneck  -4.006499767 8.334980011 1.598330021
upperneck  15.44629955 11.14039993 -1.525500059
head  5.496590137 5.334420204 -0.07102269679
lclavicle  0 -9.442270133e-015 7.951389973e-016
lhumerus  -48.23970032 -6.269710064 91.71450043
lradius  2.176647363e-031 -2.78047663e-031 128.0549927
lwrist  -1.412450015e-030 -1.765562519e-031 10.94180012
lhand  -1.496451383e-031 -27.76390076 20.11240005
lfingers  90 7.125020027 -90
lthumb  89.89689403 5.08795885 91.16245106
rclavicle  0 -9.442270133e-015 7.951389973e-016
rhumerus  -33.30619812 36.74969864 -92.78250122
rradius  -6.998858708e-032 3.461069749e-031 101.4319992
rwrist  0 -3.531125038e-031 -6.50921011
rhand  -7.920061211e-032 -33.2840004 9.303460121
rfingers  -90 -7.125020027 -90
rthumb  -92.93752616 -24.25625642 -97.11982154
rfemur  -19.62610054 11.41469955 -3.256040096
rtibia  -0 0 44.66830063
rfoot  -0 -8.766010284 -8.087619781
rtoes  5.373923086 19.29304026 -105.8922705
lfemur  -18.15640068 5.484749794 -10.94250011
ltibia  -0 0 59.53559875
lfoot  4.423387717e-032 3.752099991 -4.844629765
ltoes  -4.250644065 -19.5611806 -102.515957
53
root  12.18142247 40.97066564 -4.093466781 -152.9489746 -78.70860291 155.4849854
lowerback  9.903470039 1.158830047 -1.19453001
upperback  4.585720062 1.262740016 0.799356997
thorax  -0.8349270225 0.5304340124 1.366430044
lowerneck  -4.077799797 8.219790459 1.70946002
upperneck  15.15229988 10.95590019 -1.380630016
head  5.411520004 5.26846981 -0.0595513992
lclavicle  0 -9.442270133e-015 7.951389973e-016
lhumerus  -49.68980026 -5.546919823 91.74330139
lradius  2.153277796e-031 -2.798613723e-031 127.5749969
lwrist  -7.062250077e-031 -1.765562519e-031 11.44190025
lhand  -1.496451383e-031 -27.76390076 20.11240005
lfingers  90 7.125020027 -90
lthumb  89.89689403 5.08795885 91.16245106
rclavicle  0 -9.442270133e-015 7.951389973e-016
rhumerus  -32.542099 36.30699921 -92.39450073
rradius  -7.180588061e-032 3.457345165e-031 101.7330017
rwrist  0 -0 -7.453499794
rhand  -7.920061211e-032 -33.2840004 9.303460121
rfingers  -90 -7.125020027 -90
rthumb  -92.93752616 -24.25625642 -97.11982154
rfemur  -18.76939964 11.73579979 -2.379169941
rtibia  -0 0 45.85390091
rfoot  -4.44686507e-032 -6.980150223 -5.260089874
rtoes  5.373923086 19.29304026 -105.8922705
lfemur  -19.8185997 5.612050056 -9.870229721
ltibia  -0 0 60.37139893
lfoot  4.418281283e-032 2.549969912 -4.427969933
ltoes  -4.250644065 -19.5611806 -102.515957
54
root  12.12637744 40.8386681 -4.124422148 -154.6810303 -78.78700256 157.2800293
lowerback  9.929559708 1.146829963 -0.9860230088
upperback  4.495619774 1.271690011 0.9821230173
thorax  -0.9424660206 0.5384060144 1.435889959
lowerneck  -4.288969994 8.125229836 1.884610057
upperneck  14.98620033 10.79430008 -1.23526001
head  5.394139767 5.21284008 -0.04661490023
lclavicle  0 -9.442270133e-015 7.951389973e-016
lhumerus  -50.73730087 -4.810249805 91.65139771
lradius  2.122179101e-031 -2.822268574e-031 126.9410019
lwrist  -7.062250077e-031 1.765562519e-031 11.93939972
lhand  -1.496451383e-031 -27.76390076 20.11240005
lfingers  90 7.125020027 -90
lthumb  89.89689403 5.08795885 91.16245106
rclavicle  0 -9.442270133e-015 7.951389973e-016
rhumerus  -31.77890015 36.21300125 -92.07929993
rradius  -7.502496056e-032 3.450502799e-031 102.2669983
rwrist  1.412450015e-030 1.765562519e-031 -7.26857996
rhand  -7.920061211e-032 -33.2840004 9.303460121
rfingers  -90 -7.125020027 -90
rthumb  -92.93752616 -24.25625642 -97.11982154
rfemur  -17.62879944 12.22439957 -1.520149946
rtibia  -0 0 46.73789978
rfoot  -6.688287593e-032 -8.142660141 -2.994029999
rtoes  5.373923086 19.29304026 -105.8922705
lfemur  -21.35659981 5.410610199 -8.977749825
ltibia  -0 0 61.0904007
lfoot  4.415051449e-032 1.304999948 -3.980730057
ltoes  -4.250644065 -19.5611806 -102.515957
